<?xml version="1.0" encoding="UTF-8"?>
<svg id="Layer_1" data-name="Layer 1" xmlns="http://www.w3.org/2000/svg" xmlns:xlink="http://www.w3.org/1999/xlink" viewBox="0 0 1092.95 378">
  <defs>
    <style>
      .cls-1 {
        fill: url(#linear-gradient-2);
      }

      .cls-2 {
        fill: #141424;
      }

      .cls-3 {
        fill: #896bff;
      }

      .cls-4 {
        fill: url(#linear-gradient-6);
      }

      .cls-5 {
        fill: #3a95ff;
      }

      .cls-6 {
        fill: #141425;
      }

      .cls-7 {
        fill: #28294e;
      }

      .cls-8 {
        fill: #1fa6ff;
      }

      .cls-9 {
        fill-rule: evenodd;
      }

      .cls-9, .cls-10 {
        fill: #19fbff;
      }

      .cls-11 {
        fill: #2a2a4f;
      }

      .cls-12 {
        fill: url(#linear-gradient-5);
      }

      .cls-13 {
        fill: #f09343;
      }

      .cls-14 {
        fill: #f7ce58;
      }

      .cls-15 {
        fill: #ff2cfb;
      }

      .cls-16 {
        fill: url(#linear-gradient-3);
      }

      .cls-17 {
        fill: #050111;
      }

      .cls-18 {
        fill: url(#linear-gradient);
      }

      .cls-19 {
        fill: url(#linear-gradient-4);
      }
    </style>
    <linearGradient id="linear-gradient" x1="970.74" y1="167.72" x2="970.74" y2="222.72" gradientTransform="translate(0 367.45) scale(1 -1)" gradientUnits="userSpaceOnUse">
      <stop offset="0" stop-color="#ff2cfb"/>
      <stop offset="1" stop-color="#ff2cfb" stop-opacity="0"/>
    </linearGradient>
    <linearGradient id="linear-gradient-2" x1="82.12" y1="253.72" x2="82.12" y2="310.72" gradientTransform="translate(0 367.45) scale(1 -1)" gradientUnits="userSpaceOnUse">
      <stop offset="0" stop-color="#896bff"/>
      <stop offset="1" stop-color="#896bff" stop-opacity="0"/>
    </linearGradient>
    <linearGradient id="linear-gradient-3" x1="1029.07" y1="241.72" x2="1029.07" y2="303.22" gradientTransform="translate(0 367.45) scale(1 -1)" gradientUnits="userSpaceOnUse">
      <stop offset="0" stop-color="#896bff"/>
      <stop offset="1" stop-color="#896bff" stop-opacity="0"/>
    </linearGradient>
    <linearGradient id="linear-gradient-4" x1="631.74" y1="207.72" x2="631.74" y2="299.72" gradientTransform="translate(0 367.45) scale(1 -1)" gradientUnits="userSpaceOnUse">
      <stop offset="0" stop-color="#1fa6ff"/>
      <stop offset="1" stop-color="#1fa6ff" stop-opacity="0"/>
    </linearGradient>
    <linearGradient id="linear-gradient-5" x1="163.74" y1="176.72" x2="163.74" y2="205.72" gradientTransform="translate(0 367.45) scale(1 -1)" gradientUnits="userSpaceOnUse">
      <stop offset="0" stop-color="#1fa6ff"/>
      <stop offset="1" stop-color="#1fa6ff" stop-opacity="0"/>
    </linearGradient>
    <linearGradient id="linear-gradient-6" x1="640.24" y1="117.72" x2="640.24" y2="148.72" gradientTransform="translate(0 367.45) scale(1 -1)" gradientUnits="userSpaceOnUse">
      <stop offset="0" stop-color="#01f1f4"/>
      <stop offset="1" stop-color="#01f1f4" stop-opacity="0"/>
    </linearGradient>
  </defs>
  <path class="cls-2" d="m0,0h1092.95v378H0V0Z"/>
  <path class="cls-13" d="m164.24,91.72h93v70h-93v-70Z"/>
  <path class="cls-14" d="m25.24,230.72v-69h45v69H25.24Z"/>
  <path class="cls-3" d="m573.24,159.72h300v59h-300v-59Z"/>
  <path class="cls-9" d="m873.19,218.22h.03v-.04l-.03.04Zm.03-.04v-29.24h-29.23l29.23,29.24Z"/>
  <path class="cls-9" d="m814.74,218.17v.04h29.27v-29.24l-29.23,29.24-.04-.04Z"/>
  <path class="cls-9" d="m814.77,159.72h-.04v.04l.04-.04Zm-.04.04v29.24h29.23l-29.23-29.24Z"/>
  <path class="cls-9" d="m873.24,159.76v-.04h-.04l.04.04Zm-.04-.04h-29.23v29.24l29.23-29.24Z"/>
  <path class="cls-9" d="m814.68,218.22h.03v-.04l-.03.04Zm.03-.04v-29.24h-29.23l29.23,29.24Z"/>
  <path class="cls-9" d="m756.24,218.17v.04h29.27v-29.24l-29.23,29.24-.04-.04Z"/>
  <path class="cls-9" d="m756.27,159.72h-.03v.04l.03-.04Zm-.03.04v29.24h29.23l-29.23-29.24Z"/>
  <path class="cls-9" d="m814.74,159.76v-.04h-.03l.03.04Zm-.04-.04h-29.23v29.24l29.23-29.24Z"/>
  <path class="cls-9" d="m873.19,276.72h.03v-.04l-.03.04Zm.03-.04v-29.24h-29.23l29.23,29.24Z"/>
  <path class="cls-9" d="m814.74,276.67v.04h.04l-.04-.04Zm.04.04h29.23v-29.24l-29.23,29.24Z"/>
  <path class="cls-9" d="m814.77,218.22h-.03v.03l.03-.03Zm-.03.04v29.24h29.23l-29.23-29.24Z"/>
  <path class="cls-9" d="m873.24,218.26v-.04h-.04l.04.04Zm-.04-.04h-29.23v29.24l29.23-29.24Z"/>
  <path class="cls-9" d="m814.68,276.72h.03v-.04l-.03.04Zm.03-.04v-29.24h-29.23l29.23,29.24Z"/>
  <path class="cls-9" d="m756.24,276.67v.04h.03l-.03-.04Zm.04.04h29.23v-29.24l-29.23,29.24Z"/>
  <path class="cls-9" d="m756.27,218.22h-.03v.03l.03-.03Zm-.03.04v29.24h29.23l-29.23-29.24Z"/>
  <path class="cls-9" d="m814.74,218.26v-.04h-.03l.03.04Zm-.04-.04h-29.23v29.24l29.23-29.24Z"/>
  <path class="cls-18" d="m873.24,144.72h195v55h-195v-55Z"/>
  <path class="cls-6" d="m279.24,139.72h294v63h-294v-63Z"/>
  <path class="cls-1" d="m0,56.72h164.24v57H0v-57Z"/>
  <path class="cls-16" d="m965.2,125.72v-58h127.74v58h-127.74Z"/>
  <path class="cls-19" d="m390.24,159.72v-92h483v92h-483Z"/>
  <path class="cls-15" d="m25.24,161.72v-48h210v48H25.24Z"/>
  <path class="cls-12" d="m70.24,190.72v-29h187v29H70.24Z"/>
  <path class="cls-10" d="m965.17,171.89v-45.91h127.65v45.92h-127.65Z"/>
  <path class="cls-14" d="m234.9,109.72h22.3v21.93h-22.3v-21.93Z"/>
  <path class="cls-14" d="m279.49,109.72h21.93v21.93h-21.93v-21.93Z"/>
  <path class="cls-14" d="m323.72,109.72h21.93v21.93h-21.93v-21.93Z"/>
  <path class="cls-14" d="m346.01,131.65h21.93v22.3h-21.93v-22.3Z"/>
  <path class="cls-14" d="m234.9,153.96h22.3v22.3h-22.3v-22.3Z"/>
  <path class="cls-14" d="m279.49,153.96h21.93v22.3h-21.93v-22.3Z"/>
  <path class="cls-14" d="m323.72,153.96h21.93v22.3h-21.93v-22.3Z"/>
  <path class="cls-14" d="m257.19,176.26h21.93v21.93h-21.93v-21.93Z"/>
  <path class="cls-14" d="m301.42,176.26h22.3v21.93h-22.3v-21.93Z"/>
  <path class="cls-14" d="m346.01,176.26h21.93v21.93h-21.93v-21.93Z"/>
  <path class="cls-14" d="m234.9,198.19h22.3v22.3h-22.3v-22.3Z"/>
  <path class="cls-14" d="m257.19,220.49h21.93v22.3h-21.93v-22.3Z"/>
  <path class="cls-14" d="m301.42,220.49h22.3v22.3h-22.3v-22.3Z"/>
  <path class="cls-14" d="m346.01,220.49h21.93v22.3h-21.93v-22.3Z"/>
  <path class="cls-14" d="m234.9,242.79h22.3v21.93h-22.3v-21.93Z"/>
  <path class="cls-14" d="m279.49,242.79h21.93v21.93h-21.93v-21.93Z"/>
  <path class="cls-14" d="m323.72,242.79h21.93v21.93h-21.93v-21.93Z"/>
  <path class="cls-14" d="m257.19,131.65h21.93v22.3h-21.93v-22.3Z"/>
  <path class="cls-14" d="m301.42,131.65h22.3v22.3h-22.3v-22.3Z"/>
  <path class="cls-14" d="m279.49,198.19h21.93v22.3h-21.93v-22.3Z"/>
  <path class="cls-14" d="m323.72,198.19h21.93v22.3h-21.93v-22.3Z"/>
  <path class="cls-14" d="m367.94,109.72h22.3v21.93h-22.3v-21.93Z"/>
  <path class="cls-14" d="m367.94,198.19h22.3v22.3h-22.3v-22.3Z"/>
  <path class="cls-14" d="m367.94,242.79h22.3v21.93h-22.3v-21.93Z"/>
  <path class="cls-14" d="m367.94,153.96h22.3v22.3h-22.3v-22.3Z"/>
  <path class="cls-10" d="m0,106.34h12.62v12.62H0v-12.62Z"/>
  <path class="cls-10" d="m0,131.92h12.62v12.62H0v-12.62Z"/>
  <path class="cls-10" d="m0,157.16h12.62v12.62H0v-12.62Z"/>
  <path class="cls-10" d="m12.62,93.72h12.62v12.62h-12.62v-12.62Z"/>
  <path class="cls-10" d="m12.62,144.54h12.62v12.62h-12.62v-12.62Z"/>
  <path class="cls-10" d="m12.62,169.78h12.62v12.62h-12.62v-12.62Z"/>
  <path class="cls-10" d="m12.62,118.96h12.62v12.96h-12.62v-12.96Z"/>
  <path class="cls-3" d="m965.17,198.96h127.78v13.71h-127.78v-13.71Z"/>
  <path class="cls-4" d="m573.24,218.72h134v31h-134v-31Z"/>
  <path class="cls-14" d="m427.32,250.01h101.06v25.36h-101.06v-25.36Z"/>
  <path class="cls-17" d="m607.51,207.87h21.58v67.5h-21.58v-67.5Z"/>
  <path class="cls-5" d="m965.17,212.66h127.78v14.05h-127.78v-14.05Z"/>
  <path class="cls-17" d="m873.24,32.72h92v92h-92V32.72Z"/>
  <path class="cls-13" d="m697.24,103.72h59v56h-59v-56Z"/>
  <path class="cls-6" d="m213.24,214.72h22v22h-22v-22Z"/>
  <path class="cls-11" d="m95.24,87.72h26v26h-26v-26Z"/>
  <path class="cls-7" d="m361.12,48.72h29.12v28.78h-29.12v-28.78Z"/>
  <path class="cls-6" d="m7.24,241.72h23v23H7.24v-23Z"/>
  <path class="cls-7" d="m833.24,13.72h25v25h-25V13.72Z"/>
  <path class="cls-17" d="m965.17,230.01h24.32v24.33h-24.32v-24.33Z"/>
  <path class="cls-15" d="m629.24,275.72h26v26h-26v-26Z"/>
  <path class="cls-14" d="m873.01,178.96h92.16v51.06h-92.16v-51.06Z"/>
  <path class="cls-6" d="m873.24,281.72v-142h14v142h-14Z"/>
  <path class="cls-11" d="m1022.03,203.07v-123.7h14.05v123.7h-14.05Z"/>
  <path class="cls-6" d="m156.24,238.72V99.72h15v139h-15Z"/>
  <path class="cls-8" d="m427.32,222.94h68.17v42.49h-68.17v-42.49Z"/>
</svg>